<svg width="50" height="50" viewBox="0 0 50 50" fill="none" xmlns="http://www.w3.org/2000/svg">
<rect width="50" height="50" fill="#E5E5E5"/>
<circle cx="25" cy="25" r="25" fill="black"/>
<path d="M14.8523 32V21.82C14.8523 21.5933 14.8057 21.4067 14.7123 21.26C14.6323 21.1 14.4923 20.92 14.2923 20.72C14.0923 20.52 13.9323 20.42 13.8123 20.42C13.5457 20.42 13.1923 20.6867 12.7523 21.22C12.7923 21.5533 12.8123 21.9067 12.8123 22.28V32H10.0523V23.44C10.0523 22.3067 9.97234 21.5133 9.81234 21.06C9.66568 20.6067 9.34568 20.0667 8.85234 19.44L11.2523 17.76C11.679 18.0667 11.9857 18.4333 12.1723 18.86C13.1323 18.1267 13.8123 17.76 14.2123 17.76C14.6123 17.76 15.3657 18.2733 16.4723 19.3C17.579 18.2733 18.359 17.76 18.8123 17.76C19.1457 17.76 19.7123 18.1133 20.5123 18.82C21.3257 19.5133 21.8323 20.0067 22.0323 20.3C22.2323 20.58 22.3323 20.9533 22.3323 21.42V32H19.5723V21.82C19.5723 21.5667 19.5257 21.3733 19.4323 21.24C19.339 21.0933 19.179 20.92 18.9523 20.72C18.739 20.52 18.5457 20.42 18.3723 20.42C18.2123 20.42 17.9523 20.64 17.5923 21.08C17.6057 21.1467 17.6123 21.26 17.6123 21.42V32H14.8523ZM23.8398 25.94V24.06C23.8398 22.3933 23.9732 21.3267 24.2398 20.86C24.5065 20.3933 25.0732 19.76 25.9398 18.96C26.8198 18.16 27.4732 17.76 27.8998 17.76C28.6332 17.76 29.4732 18.1867 30.4198 19.04C31.3665 19.88 31.9665 20.8067 32.2198 21.82L29.9998 23.36C29.7865 22.64 29.4465 21.98 28.9798 21.38C28.5132 20.7667 28.1865 20.46 27.9998 20.46C27.6665 20.46 27.2865 20.7867 26.8598 21.44C26.6865 21.6933 26.5998 22.5667 26.5998 24.06V25.94C26.5998 27.4733 26.6865 28.3467 26.8598 28.56C27.2865 29.2133 27.6665 29.54 27.9998 29.54C28.1865 29.54 28.5132 29.28 28.9798 28.76C29.4465 28.2267 29.7865 27.64 29.9998 27L32.2198 28.56C31.9665 29.48 31.3665 30.3267 30.4198 31.1C29.4732 31.86 28.6332 32.24 27.8998 32.24C27.4732 32.24 26.8198 31.84 25.9398 31.04C25.0732 30.24 24.5065 29.6067 24.2398 29.14C23.9732 28.6733 23.8398 27.6067 23.8398 25.94ZM41.1102 18V20.4H38.5102V32H35.7502V20.4H33.1502V18H41.1102Z" fill="white"/>
</svg>
