<svg version="1.0" xmlns="http://www.w3.org/2000/svg"
 width="50.000000pt" height="50.000000pt" viewBox="0 0 50.000000 50.000000"
 preserveAspectRatio="xMidYMid meet">

<g transform="translate(0.000000,50.000000) scale(0.100000,-0.100000)"
fill="#fff" stroke="none">
<path d="M34 419 c-4 -7 40 -58 105 -123 l111 -111 112 112 c89 90 110 115
100 125 -10 10 -33 -8 -112 -87 l-100 -100 -98 98 c-53 53 -100 97 -104 97 -4
0 -10 -5 -14 -11z"/>
<path d="M34 289 c-4 -7 40 -58 105 -123 l111 -111 112 112 c89 90 110 115
100 125 -10 10 -33 -8 -112 -87 l-100 -100 -98 98 c-53 53 -100 97 -104 97 -4
0 -10 -5 -14 -11z"/>
</g>
</svg>
